<?xml version="1.0" standalone="no"?>
<!DOCTYPE svg PUBLIC "-//W3C//DTD SVG 20010904//EN"
 "http://www.w3.org/TR/2001/REC-SVG-20010904/DTD/svg10.dtd">
<svg version="1.0" xmlns="http://www.w3.org/2000/svg"
 width="844.000000pt" height="379.000000pt" viewBox="0 0 844.000000 379.000000"
 preserveAspectRatio="xMidYMid meet">

<g transform="translate(0.000000,379.000000) scale(0.100000,-0.100000)"
fill="#000000" stroke="none">
<path d="M2500 1905 c0 -8 -6 -13 -12 -11 -7 1 -10 1 -5 -1 4 -3 6 -32 5 -66
0 -34 -3 -48 -5 -31 -4 29 -6 31 -31 25 -32 -9 -33 -22 -2 -38 23 -11 22 -12
-13 -18 -21 -4 -37 -11 -37 -16 0 -5 -10 -9 -21 -9 -18 0 -19 -2 -9 -15 10
-12 9 -15 -6 -16 -11 -1 15 -7 56 -13 47 -8 80 -9 88 -3 8 6 12 5 12 -4 0 -10
3 -10 11 -2 8 8 9 44 3 125 -5 65 -10 95 -12 71 -2 -24 -8 -43 -14 -43 -7 0
-8 14 -4 40 3 22 4 40 1 40 -3 0 -5 -7 -5 -15z m-80 -185 c0 -5 -4 -10 -10
-10 -5 0 -10 5 -10 10 0 6 5 10 10 10 6 0 10 -4 10 -10z"/>
<path d="M2440 1860 c0 -5 9 -10 20 -10 11 0 20 5 20 10 0 6 -9 10 -20 10 -11
0 -20 -4 -20 -10z"/>
<path d="M2390 1449 c-58 -4 -130 -6 -160 -4 -40 3 -48 2 -30 -4 19 -7 10 -10
-45 -12 l-70 -2 65 -7 c36 -4 54 -7 41 -8 -30 -2 -63 -40 -55 -64 3 -10 0 -18
-6 -18 -7 0 -10 -8 -7 -20 3 -13 -1 -24 -14 -30 -10 -6 -19 -8 -19 -5 0 4 -7
0 -15 -9 -8 -8 -15 -28 -15 -44 0 -25 4 -29 31 -30 25 -1 28 2 18 14 -10 12
-6 13 22 8 26 -4 30 -3 19 5 -8 6 -10 11 -4 11 5 0 14 -4 20 -9 5 -5 90 -11
189 -12 l180 -3 7 39 c7 43 3 164 -7 196 -4 10 -14 18 -23 17 -9 0 -64 -5
-122 -9z"/>
<path d="M2005 1260 c-3 -5 -1 -10 4 -10 6 0 11 5 11 10 0 6 -2 10 -4 10 -3 0
-8 -4 -11 -10z"/>
<path d="M2081 1174 c0 -11 3 -14 6 -6 3 7 2 16 -1 19 -3 4 -6 -2 -5 -13z"/>
<path d="M2000 1144 c0 -14 -4 -23 -8 -20 -15 9 -33 -11 -36 -38 -3 -24 -29
-55 -48 -56 -5 0 -8 -10 -8 -23 0 -27 -55 -86 -62 -66 -3 10 -6 10 -12 1 -4
-7 -2 -12 3 -12 26 0 7 -29 -29 -45 -43 -19 -52 -35 -20 -35 28 0 25 -6 -15
-41 -19 -17 -32 -35 -29 -40 6 -10 -40 -59 -56 -59 -6 0 -8 -10 -4 -24 4 -17
0 -28 -14 -38 -12 -8 -26 -26 -33 -41 -7 -15 -16 -27 -21 -27 -4 0 -8 -5 -8
-11 0 -11 -57 -69 -69 -69 -12 0 -29 -49 -18 -53 6 -2 -13 -17 -41 -35 -54
-33 -66 -48 -31 -39 16 4 18 3 8 -9 -6 -8 -17 -14 -23 -14 -7 0 -21 -7 -32
-16 -17 -14 -17 -15 -1 -10 10 3 25 -1 33 -9 13 -12 53 -15 227 -15 117 -1
244 -3 282 -6 179 -14 332 28 442 122 66 56 102 108 138 199 24 62 28 84 30
204 2 74 0 141 -2 148 -4 11 -45 13 -193 13 -157 -1 -194 1 -224 15 -22 11
-33 22 -29 31 3 7 -2 17 -11 20 -12 5 -16 20 -16 65 l0 59 -35 0 c-31 0 -35
-3 -35 -26z"/>
</g>
</svg>
